<?xml version="1.0" standalone="no"?>
<!DOCTYPE svg PUBLIC "-//W3C//DTD SVG 20010904//EN"
 "http://www.w3.org/TR/2001/REC-SVG-20010904/DTD/svg10.dtd">
<svg version="1.0" xmlns="http://www.w3.org/2000/svg"
 width="300.000000pt" height="294.000000pt" viewBox="0 0 300.000000 294.000000"
 preserveAspectRatio="xMidYMid meet">
<metadata>
Created by potrace 1.10, written by Peter Selinger 2001-2011
</metadata>
<g transform="translate(0.000000,294.000000) scale(0.100000,-0.100000)"
fill="#000000" stroke="none">
<path d="M2073 2662 c-95 -34 -189 -133 -214 -226 -6 -23 -9 -77 -7 -121 3
-65 10 -91 33 -134 75 -137 226 -211 372 -181 113 24 202 91 250 189 24 49 28
68 28 146 0 77 -4 98 -27 147 -32 70 -97 136 -163 167 -69 33 -198 39 -272 13z
m229 -38 c25 -8 67 -33 92 -56 139 -122 147 -317 17 -447 -150 -150 -403 -106
-498 87 -38 77 -40 183 -5 254 45 91 133 158 233 177 51 9 96 5 161 -15z"/>
<path d="M2089 2540 c-54 -29 -105 -94 -119 -151 -23 -94 21 -196 107 -246 40
-24 59 -28 118 -28 77 1 110 14 161 64 45 44 67 96 68 161 1 72 -38 141 -108
188 -43 29 -55 32 -120 32 -50 -1 -82 -7 -107 -20z m205 -44 c98 -57 122 -190
49 -276 -94 -112 -270 -84 -328 52 -31 75 -7 163 58 212 69 53 144 57 221 12z"/>
<path d="M2110 2471 c0 -6 7 -14 15 -17 12 -5 12 -10 3 -27 -6 -12 -16 -25
-22 -29 -7 -5 -7 -8 -1 -8 6 0 11 -9 12 -21 2 -25 21 -49 48 -59 19 -8 19 -9
-4 -9 -13 -1 -30 -9 -37 -18 -17 -22 -18 -44 -1 -23 7 9 28 15 52 15 54 0 61
29 12 50 -18 7 -39 21 -46 29 -19 23 -10 69 17 81 28 13 30 39 2 30 -12 -4
-27 -1 -35 5 -11 9 -15 9 -15 1z"/>
<path d="M2250 2418 c0 -11 -10 -15 -37 -14 -49 1 -51 -23 -5 -45 56 -26 69
-72 31 -108 -26 -24 -51 -71 -39 -71 18 0 79 75 80 96 0 27 -20 84 -29 84 -4
0 -16 7 -27 16 -18 15 -18 15 9 11 31 -5 48 16 28 36 -8 8 -11 7 -11 -5z"/>
<path d="M2140 2221 c15 -12 29 -16 34 -11 12 12 8 16 -29 24 l-30 7 25 -20z"/>
<path d="M221 2644 c-20 -26 -21 -39 -21 -300 0 -183 4 -281 11 -298 7 -14 25
-30 42 -36 40 -13 625 -13 665 1 16 5 34 21 41 35 7 17 11 115 11 298 0 261
-1 274 -21 300 l-20 26 -344 0 -344 0 -20 -26z m349 -144 l0 -140 -165 0 -165
0 0 130 c0 112 2 130 18 139 9 6 83 11 165 11 l147 0 0 -140z m341 130 c17
-10 19 -22 19 -143 l0 -132 -162 2 -163 2 -3 140 -3 141 146 0 c82 0 155 -5
166 -10z m-341 -450 l0 -140 -153 0 c-106 0 -157 4 -165 12 -8 8 -12 54 -12
140 l0 128 165 0 165 0 0 -140z m360 12 c0 -86 -4 -132 -12 -140 -8 -8 -59
-12 -165 -12 l-153 0 0 140 0 140 165 0 165 0 0 -128z"/>
<path d="M378 2548 c-3 -28 -7 -32 -33 -33 -20 0 -31 -6 -33 -17 -3 -15 4 -18
32 -18 35 0 36 -1 36 -36 0 -28 3 -35 18 -32 11 2 18 14 20 35 3 28 7 32 35
35 46 4 43 33 -3 34 -33 0 -35 2 -32 32 3 26 0 32 -17 32 -15 0 -20 -8 -23
-32z"/>
<path d="M694 2559 c-3 -6 6 -23 20 -38 l26 -27 -25 -22 c-26 -23 -26 -42 0
-42 8 0 21 10 29 22 l16 22 23 -22 c44 -41 66 -19 25 25 l-22 23 22 16 c24 17
29 39 10 50 -6 4 -20 -4 -33 -20 l-21 -26 -24 25 c-26 27 -35 31 -46 14z"/>
<path d="M315 2191 c-3 -5 0 -13 6 -16 8 -6 100 -9 159 -6 6 1 10 8 10 16 0
12 -16 15 -84 15 -47 0 -87 -4 -91 -9z"/>
<path d="M682 2233 c3 -15 16 -18 82 -21 55 -2 82 1 87 10 14 23 -2 28 -87 28
-76 0 -85 -2 -82 -17z"/>
<path d="M684 2141 c-2 -2 -4 -10 -4 -18 0 -10 21 -13 84 -13 76 0 110 10 93
27 -7 6 -167 10 -173 4z"/>
<path d="M1502 2574 c-28 -19 -52 -65 -52 -98 0 -32 38 -96 62 -105 10 -3 42
-4 70 -1 47 4 55 9 80 45 15 22 27 48 28 58 0 19 -46 97 -64 109 -20 14 -101
8 -124 -8z m103 0 c25 -6 65 -66 65 -97 0 -13 -14 -40 -31 -60 -27 -32 -37
-37 -75 -37 -34 0 -48 6 -68 27 -35 37 -42 77 -21 111 35 55 74 72 130 56z"/>
<path d="M1740 2505 c0 -47 3 -63 13 -60 8 4 12 26 12 65 0 41 -4 60 -12 60
-9 0 -13 -20 -13 -65z"/>
<path d="M2557 2550 c-3 -11 -1 -22 3 -25 5 -3 7 -16 4 -29 -2 -14 3 -31 12
-41 17 -17 38 -17 32 0 -2 6 -6 9 -10 8 -14 -5 -9 65 5 70 10 4 10 6 0 6 -7 1
-13 8 -13 16 0 22 -27 18 -33 -5z"/>
<path d="M1808 2539 c-24 -13 -24 -74 -2 -83 9 -4 20 -3 23 0 3 4 0 9 -6 11
-7 3 -13 16 -13 29 0 23 9 29 39 25 18 -3 8 23 -10 26 -8 2 -22 -2 -31 -8z"/>
<path d="M2506 1943 c-3 -4 -6 -283 -6 -621 l1 -615 -173 -1 c-156 -1 -173 -3
-176 -18 -3 -17 11 -18 192 -18 l196 0 0 640 c0 527 -2 640 -13 640 -8 0 -17
-3 -21 -7z"/>
<path d="M207 1924 c-4 -4 -7 -288 -7 -631 l0 -623 211 0 c195 0 210 1 207 18
-3 15 -20 17 -191 17 l-187 0 -2 609 c-3 587 -5 635 -31 610z"/>
<path d="M667 1603 c-4 -3 -7 -215 -7 -470 l0 -463 715 0 714 0 3 223 c3 208
-2 255 -23 241 -5 -3 -9 -101 -9 -217 l0 -212 -681 2 -681 3 -1 430 -2 430
683 0 682 0 0 -176 c0 -155 2 -175 16 -172 14 3 16 26 15 186 0 101 -3 187 -6
192 -7 11 -1408 14 -1418 3z"/>
<path d="M800 1138 l0 -328 578 0 577 0 -2 325 -3 325 -575 3 -575 2 0 -327z
m1128 22 c2 -151 -1 -286 -6 -299 l-9 -24 -251 1 c-139 1 -256 4 -262 7 -5 3
-13 -3 -19 -12 -10 -17 -10 -17 -11 0 0 9 -4 17 -10 17 -5 0 -10 -5 -10 -10 0
-15 -207 -11 -223 4 -14 13 -103 13 -100 0 2 -13 -159 -11 -181 2 -19 11 -20
27 -22 270 -1 143 0 274 3 292 l5 33 269 -3 c148 -2 269 -1 269 2 0 3 125 3
277 0 l278 -5 3 -275z"/>
<path d="M1659 1359 c-17 -18 -29 -39 -27 -48 3 -26 -26 -72 -86 -134 -49 -51
-59 -57 -83 -51 -16 4 -39 15 -52 25 -13 10 -27 16 -32 13 -5 -3 -9 2 -9 10 0
9 -8 16 -19 16 -20 0 -46 34 -56 72 -4 16 -18 29 -39 36 -44 16 -49 16 -80
-13 -21 -19 -26 -33 -26 -69 0 -32 -5 -48 -19 -58 -10 -7 -19 -17 -21 -23 -5
-21 -27 -45 -34 -37 -4 4 -6 2 -4 -4 4 -14 -40 -54 -59 -54 -7 0 -21 -13 -32
-30 -10 -16 -21 -27 -24 -24 -3 4 -4 -6 -1 -20 6 -34 55 -91 64 -75 4 6 -3 21
-16 34 -13 13 -24 33 -24 43 0 24 31 52 57 52 14 0 38 22 72 69 28 38 58 74
66 81 11 9 12 16 4 26 -18 22 -6 67 22 83 24 13 29 13 53 -2 19 -13 26 -26 26
-50 0 -28 6 -35 47 -57 26 -14 66 -37 89 -52 66 -44 90 -34 174 74 39 49 70
97 69 106 -5 32 12 62 38 68 32 8 54 -4 71 -39 17 -34 31 -35 24 -2 -6 32 -47
65 -79 65 -15 0 -37 -13 -54 -31z"/>
<path d="M1754 1269 c-11 -13 -27 -19 -41 -16 -18 3 -34 -13 -92 -88 -52 -69
-68 -98 -64 -114 6 -24 -21 -61 -44 -61 -7 0 -13 -5 -13 -11 0 -6 6 -8 13 -5
6 3 20 9 29 12 10 4 22 23 28 44 14 52 123 195 160 210 31 13 56 37 48 45 -3
3 -13 -4 -24 -16z"/>
<path d="M1157 1085 c-55 -70 -66 -89 -61 -110 5 -20 -1 -31 -25 -54 -25 -23
-27 -28 -11 -24 25 7 50 40 50 68 0 11 10 32 23 47 12 14 40 49 62 77 22 28
45 51 51 51 6 0 37 -14 68 -30 31 -17 56 -27 56 -23 0 8 -126 83 -139 83 -3 0
-36 -38 -74 -85z"/>
<path d="M1380 1082 c0 -3 12 -17 28 -29 l27 -23 -29 10 c-27 10 -26 7 15 -29
40 -36 69 -51 69 -35 0 3 -11 15 -25 26 -14 11 -25 27 -25 36 0 9 -14 25 -30
34 -17 9 -30 14 -30 10z"/>
<path d="M614 568 c-5 -7 -9 -38 -8 -68 2 -52 5 -57 57 -107 l55 -53 658 0
658 0 58 57 c54 54 58 60 58 104 0 85 25 79 -315 79 -268 0 -304 -2 -309 -16
-3 -9 -4 -20 0 -25 3 -5 -61 -9 -155 -9 -158 0 -160 0 -163 23 l-3 22 -291 3
c-226 2 -293 -1 -300 -10z m558 -50 c3 -23 4 -23 193 -23 189 0 190 0 193 23
l3 22 275 0 274 0 0 -38 c0 -31 -7 -45 -43 -80 l-43 -42 -644 0 -645 1 -47 44
c-40 36 -48 49 -48 79 l0 36 264 0 265 0 3 -22z"/>
</g>
</svg>
